<?xml version="1.0" standalone="no"?>
<!DOCTYPE svg PUBLIC "-//W3C//DTD SVG 20010904//EN"
 "http://www.w3.org/TR/2001/REC-SVG-20010904/DTD/svg10.dtd">
<svg version="1.0" xmlns="http://www.w3.org/2000/svg"
 width="750.000000pt" height="727.000000pt" viewBox="0 0 750.000000 727.000000"
 preserveAspectRatio="xMidYMid meet">

<g transform="translate(0.000000,727.000000) scale(0.100000,-0.100000)"
fill="#000000" stroke="none">
<path d="M0 3635 l0 -3635 3750 0 3750 0 0 3635 0 3635 -3750 0 -3750 0 0
-3635z m4276 1541 l34 -34 0 -99 0 -99 -50 -49 -49 -49 -3 130 -3 129 -405 3
c-223 1 -410 0 -415 -2 -8 -3 -3 -83 12 -247 l24 -244 -22 -18 c-13 -10 -29
-15 -38 -11 -119 51 -354 105 -372 87 -5 -5 -8 -286 -7 -644 l3 -634 610 0
610 0 3 365 2 366 50 49 50 49 0 -431 c0 -426 0 -431 -22 -458 -44 -56 -35
-55 -700 -55 -576 0 -615 1 -648 18 -73 39 -70 8 -70 757 1 500 4 677 13 697
13 29 369 432 395 448 10 6 201 10 490 10 l474 0 34 -34z m447 -184 c79 -81
87 -92 87 -128 0 -29 -8 -49 -31 -77 -17 -20 -37 -37 -44 -37 -13 0 -265 248
-265 260 0 9 63 67 80 73 8 4 31 4 50 2 28 -4 52 -22 123 -93z m-248 -82 l50
-50 -368 -368 -367 -367 -52 53 -53 52 365 365 c201 201 367 365 370 365 3 0
28 -23 55 -50z m-152 -582 c-197 -197 -363 -358 -368 -358 -6 0 -32 22 -58 48
l-48 48 363 362 363 362 53 -52 52 -53 -357 -357z m-875 -80 c-4 -10 -42 -13
-148 -13 -106 0 -144 3 -147 13 -4 9 30 12 147 12 117 0 151 -3 148 -12z m325
-206 l128 -128 -193 -83 c-106 -46 -197 -87 -203 -92 -5 -5 96 -9 248 -9 222
0 257 -2 257 -15 0 -13 -54 -15 -430 -15 -376 0 -430 2 -430 15 0 13 23 15
144 15 103 0 146 4 153 13 5 6 50 105 99 220 48 114 91 207 94 207 3 0 63 -58
133 -128z m-313 -57 c0 -13 -24 -15 -155 -15 -131 0 -155 2 -155 15 0 13 24
15 155 15 131 0 155 -2 155 -15z m-1642 -1150 c65 -28 112 -86 112 -140 0 -23
-4 -25 -43 -25 -40 0 -44 2 -56 35 -15 42 -54 65 -111 65 -86 0 -130 -57 -130
-171 0 -112 45 -169 132 -169 43 0 54 4 84 34 19 19 34 43 34 55 0 19 -6 21
-71 21 l-70 0 3 38 3 37 115 0 115 0 -3 -60 c-7 -127 -69 -194 -191 -203 -161
-11 -246 75 -246 248 1 122 38 194 120 231 50 23 152 25 203 4z m282 -171 l0
-176 29 -29 c24 -24 38 -29 76 -29 102 0 115 27 115 245 l0 165 50 0 50 0 0
-137 c0 -159 -12 -247 -38 -283 -30 -42 -98 -70 -167 -70 -84 0 -128 15 -164
55 -43 50 -51 90 -51 273 l0 162 50 0 50 0 0 -176z m750 -55 c47 -127 87 -235
88 -240 2 -5 -19 -9 -47 -9 l-50 0 -17 55 -18 55 -102 0 -103 0 -17 -55 -18
-55 -48 0 c-26 0 -48 4 -48 9 0 7 131 366 165 454 6 14 19 17 69 17 l61 0 85
-231z m467 212 c55 -25 77 -67 70 -135 -4 -43 -10 -55 -41 -82 -27 -24 -33
-33 -22 -37 25 -10 44 -49 55 -112 5 -33 12 -68 16 -77 6 -16 1 -18 -43 -18
l-51 0 -11 58 c-21 109 -36 122 -141 122 l-59 0 0 -90 0 -90 -45 0 -45 0 0
240 0 240 138 0 c113 0 144 -4 179 -19z m456 5 c48 -18 74 -40 100 -91 18 -33
21 -58 21 -135 0 -77 -3 -102 -21 -135 -46 -88 -89 -105 -268 -105 l-135 0 0
240 0 240 133 0 c85 -1 146 -6 170 -14z m555 -23 l-3 -38 -127 -3 -128 -3 0
-59 0 -60 115 0 115 0 0 -35 0 -35 -115 0 -115 0 0 -65 0 -65 130 0 130 0 0
-40 0 -40 -175 0 -175 0 0 240 0 240 176 0 175 0 -3 -37z m172 -58 l0 -95 115
0 115 0 0 95 0 95 45 0 45 0 0 -240 0 -240 -45 0 -45 0 0 105 0 105 -115 0
-115 0 0 -105 0 -105 -50 0 -50 0 0 240 0 240 50 0 50 0 0 -95z m510 -64 c0
-90 5 -172 11 -190 21 -59 119 -82 172 -41 38 30 47 77 47 243 l0 147 46 0 45
0 -3 -182 c-3 -162 -5 -188 -24 -223 -30 -58 -88 -85 -178 -85 -96 0 -152 27
-183 90 -21 41 -23 58 -23 222 l0 178 45 0 45 0 0 -159z m735 145 c40 -17 65
-60 65 -112 0 -28 -8 -44 -34 -70 l-33 -33 33 -21 c56 -32 71 -107 34 -168
-32 -52 -69 -62 -235 -62 l-145 0 0 240 0 240 140 0 c99 0 151 -4 175 -14z"/>
<path d="M3163 4915 c-109 -121 -117 -135 -77 -136 16 0 70 -11 119 -23 50
-13 91 -23 92 -22 1 1 -4 62 -12 136 -8 74 -15 138 -15 143 0 17 -20 -1 -107
-98z"/>
<path d="M2695 2739 c-29 -83 -65 -189 -65 -193 0 -3 34 -6 74 -6 l75 0 -35
102 c-39 113 -41 117 -49 97z"/>
<path d="M3090 2684 l0 -77 81 5 c95 6 123 24 123 84 0 53 -21 64 -121 64
l-83 0 0 -76z"/>
<path d="M3570 2600 l0 -160 78 0 c118 0 152 36 152 165 0 120 -35 155 -152
155 l-78 0 0 -160z"/>
<path d="M5520 2699 l0 -61 86 3 c92 4 114 17 114 65 0 43 -24 54 -116 54
l-84 0 0 -61z"/>
<path d="M5520 2505 l0 -65 89 0 c105 0 124 11 119 69 -4 48 -32 61 -130 61
l-78 0 0 -65z"/>
</g>
</svg>
